# xmcd
#
# Track frame offsets:
#	150
#	16527
#	36923
#	48894
#	68620
#	87891
#	104601
#	121547
#	138687
#	151900
#	164365
#	182322
#	195917
#	212657
#	229597
#	245175
#	262418
#	278366
#	290692
#	309205
#
# Disc length: 4323
#
# Revision: 1
# Processed by: cddbd v1.5.1PL0 Copyright (c) Steve Scherf et al.
# Submitted via: audiograbber 1.83.01
# Normalized: r0:DSETVAR1
#
DISCID=0810e114
DTITLE=Various Artist - Hity 1980
DYEAR=1980
DGENRE=Ethnic
TTITLE0=Karel Gott - To jsou famy
TTITLE1=Helena Vondrackova - Leto je leto
TTITLE2=Vaclav Neckar - Mydlovy princ
TTITLE3=Marie Rottrova - Hodina H
TTITLE4=Vitezslav Vavra - Divka Gloria
TTITLE5=Hana Zagorova - Naskok
TTITLE6=Petr Spaleny - Hrac
TTITLE7=Olympic - Osmy den
TTITLE8=Vera Spinarova - A-B
TTITLE9=Ladislav Staidl - Miluji te
TTITLE10=Kardinalove - Nejkrasnejsi sen
TTITLE11=Vaclav Neckar - Mademoisell Giselle
TTITLE12=Marie Rottrova - Stesti
TTITLE13=Vitezslav Vavra - Citronova holka
TTITLE14=Nada Urbankova - Prazdny expres
TTITLE15=Vera Spinarova - Kosmicka laska
TTITLE16=Olympic - Dedeckuv duch
TTITLE17=Helena Vondrackova - Kdyz zabloudis, tak zavolej
TTITLE18=Petr Spaleny - Obycejny muz
TTITLE19=Hana Zagorova and Drupi - Setkani
EXTD=
EXTT0=
EXTT1=
EXTT2=
EXTT3=
EXTT4=
EXTT5=
EXTT6=
EXTT7=
EXTT8=
EXTT9=
EXTT10=
EXTT11=
EXTT12=
EXTT13=
EXTT14=
EXTT15=
EXTT16=
EXTT17=
EXTT18=
EXTT19=
PLAYORDER=
